<svg width="192" height="192" xmlns="http://www.w3.org/2000/svg"><path d="M179.505 55.743q0-23.05-17.336-39.184Q145.658.424 121.717.424q-24.766 0-42.102 16.135T62.28 55.743q0 22.282 17.336 38.416 17.336 15.367 42.102 15.367 23.941 0 40.452-15.367 17.336-16.134 17.336-38.416z" style="fill:#ffde00;fill-opacity:1;stroke:none;stroke-width:10.6663" transform="translate(-.062 1.583) scale(.98351)"/><g style="fill:#0000c5;fill-opacity:1;stroke:none;stroke-opacity:1"><path style="fill:#0000c5;fill-opacity:1;stroke:none;stroke-width:1;stroke-linecap:butt;stroke-linejoin:miter;stroke-miterlimit:4;stroke-dasharray:none;stroke-opacity:1" d="M-279.835 482.13c24.224-36.638 61.034-64.784 102.741-78.557 41.707-13.773 88.04-13.083 129.318 1.924 59.19 21.52 106.568 73.054 123.046 133.84 16.478-60.786 63.856-112.32 123.045-133.84 41.279-15.007 87.612-15.697 129.319-1.924 41.707 13.773 78.517 41.92 102.74 78.558m0 0c-17.771-62.514-63.35-116.562-121.965-144.632-32.43-15.53-68.953-23.328-104.697-19.429-52.295 5.705-101.082 37.54-127.363 83.11-27.103-45.778-76.613-77.547-129.521-83.11-35.75-3.758-72.252 3.954-104.697 19.429-58.673 27.984-104.288 82.076-121.966 144.632" transform="scale(.11263) rotate(10 1109.493 7484.697)"/></g><path d="M28.07 176.789c1.377 6.32-2.89 14.983-11.76 14.784-6.746-.2-10.687-5.494-10.752-11.256.233-7.772 6.143-13.187 12.936-13.272 17.884 3.016 31.434 18.443 48.552 18.816 16.667-1.895 27.826-15.888 28.132-30.662-.207-11.857-6.334-26.666-17.963-29.776-9.028 1.53-16.59 8.769-22.769 13.902-.336.336-.728.504-1.176.504-.448 0-.84-.168-1.176-.504-5.715-5.144-11.297-9.649-16.296-15.12-.448-.448-.672-.84-.672-1.176 0-.56.374-.961.84-1.36 1.127-1.288 11.073-9.297 16.128-13.76.448-.224.784-.336 1.008-.336.336 0 .728.112 1.176.336a261.58 261.58 0 0 0 10.92 7.224c7.307 4.046 9.928 8.292 16.8 0 12.428-13.584 10.892-32.383-1.601-42.501-12.62-9.45-29.073-8.529-39.727 1.34-4.764 4.723-8.27 10.014-10.92 15.793-.636 1.346-2.226 1.186-2.688 0-.91-6.95-1.317-20.457.672-31.248.155-.526.448-.672 1.344-.672 1.792.032 1.762 2.129 2.016 3.528.95 3.671 1.74 7.81 4.704 10.08C46.415 64 57.326 59.237 69.23 59.189c19.52-.891 38.577 11.443 40.656 33.264.894 9.472-5.297 21.637-21.84 30.072 7.003 2.416 13.821 5.78 18.648 10.752 15.033 14.813 10.42 38.227-3.192 49.56-17.096 12.369-40.505 10.506-58.8.672-5.565-2.658-10.842-5.585-16.632-6.72z" style="font-size:168px;line-height:1.25;font-family:'Hirmos Ucs';-inkscape-font-specification:'Hirmos Ucs';fill:#c50000" transform="translate(-.062 1.583) scale(.98351)"/><path style="fill:#c50000;fill-opacity:1;stroke:none;stroke-width:2.32989" d="M163.525 117.894c-1.563-.013-3.103.005-4.884.005-1.761.415-2.116 1.77-2.344 3.357-.045 4.14.357 8.817.36 12.42-6.594 10.969-13.788 21.295-20.016 31.551-3.308 6.324-6.952 12.398-7.033 19.132.747 7.495 6.762 8.486 12.262 5.707 5.375-4.387 9.99-9.691 13.886-14.937 1.443-1.903 3.066-4.196 4.87-6.881 1.55 7.568 1.738 14.526 4.687 20.98.721 1.566 1.683 2.348 2.886 2.348h10.459c2.645 0 3.967-.67 3.967-2.013-2.591-12.996-4.2-23.564-5.59-33.4-1.442-10.405-2.465-22.04-3.066-34.907-.464-2.921-3.007-3.098-5.41-3.188a88.527 88.527 0 0 0-5.034-.174zm-6.507 19.137c.768 8.99 1.967 16.881 2.706 25.679-3.581 5.688-6.574 10.78-11.54 15.272-11.218 9.324-11.512-4.151-6.854-12.251 4.732-10.068 10.625-19.757 15.688-28.7z" transform="translate(-.062 1.583) scale(.98351)"/></svg>