<svg width="16" height="16" xmlns="http://www.w3.org/2000/svg"><g style="fill:#000;fill-opacity:1;stroke:none;stroke-opacity:1"><path style="fill:#000;fill-opacity:1;stroke:none;stroke-width:1;stroke-linecap:butt;stroke-linejoin:miter;stroke-miterlimit:4;stroke-dasharray:none;stroke-opacity:1" d="M-279.835 482.13c24.224-36.638 61.034-64.784 102.741-78.557 41.707-13.773 88.04-13.083 129.318 1.924 59.19 21.52 106.568 73.054 123.046 133.84 16.478-60.786 63.856-112.32 123.045-133.84 41.279-15.007 87.612-15.697 129.319-1.924 41.707 13.773 78.517 41.92 102.74 78.558m0 0c-17.771-62.514-63.35-116.562-121.965-144.632-32.43-15.53-68.953-23.328-104.697-19.429-52.295 5.705-101.082 37.54-127.363 83.11-27.103-45.778-76.613-77.547-129.521-83.11-35.75-3.758-72.252 3.954-104.697 19.429-58.673 27.984-104.288 82.076-121.966 144.632M347.2 527.48c-21.828-126.41-101.196-240.37-208.495-310.674-108.496-71.086-244.29-98.209-372.321-77.413-132.78 21.566-257.082 94.818-337.588 202.589-76.772 102.77-112.4 236.998-89.666 363.248 22.373 124.246 100.735 236.428 207.331 304.066 112.797 71.573 254.106 93.202 385.354 68.303 126.508-24 245.936-91.5 324.555-193.478 77.082-99.986 112.313-232.233 90.83-356.641Z" transform="scale(.00932) rotate(10 1080.07 7519.78)"/></g><path d="M2.333 14.578c.112.514-.235 1.22-.958 1.204-.549-.017-.87-.448-.875-.917.019-.633.5-1.074 1.053-1.08 1.456.245 2.56 1.501 3.953 1.531a2.579 2.579 0 0 0 2.29-2.496c-.016-.965-.515-2.171-1.462-2.424-.735.124-1.35.714-1.854 1.131a.131.131 0 0 1-.191 0c-.465-.418-.92-.785-1.327-1.23-.036-.037-.055-.069-.055-.096 0-.046.03-.079.069-.111.092-.105.901-.757 1.313-1.12a.21.21 0 0 1 .082-.028c.027 0 .06.01.096.028.3.21.597.405.889.588.595.33.808.675 1.368 0 1.012-1.106.887-2.637-.13-3.46-1.028-.77-2.368-.695-3.235.109a4.311 4.311 0 0 0-.89 1.285c-.051.11-.18.097-.218 0-.074-.566-.107-1.665.055-2.544.012-.043.036-.055.109-.055.146.003.143.174.164.288.078.299.142.636.383.82.865-.606 1.753-.994 2.722-.998 1.59-.073 3.141.932 3.31 2.708.073.771-.43 1.762-1.778 2.449.57.196 1.126.47 1.519.875 1.223 1.206.848 3.113-.26 4.035-1.392 1.007-3.298.856-4.788.055-.453-.216-.883-.455-1.354-.547z" style="font-size:168px;line-height:1.25;font-family:'Hirmos Ucs';-inkscape-font-specification:'Hirmos Ucs';fill:#000;stroke-width:.0814202;fill-opacity:1"/><path style="fill:#000;fill-opacity:1;stroke:none;stroke-width:.1897" d="M13.362 9.783h-.398c-.143.034-.172.144-.19.273-.004.337.028.718.029 1.012-.537.893-1.123 1.733-1.63 2.568-.27.515-.566 1.01-.573 1.558.061.61.55.691.999.465.437-.357.813-.79 1.13-1.216.118-.155.25-.342.397-.56.126.616.141 1.182.381 1.708.059.127.137.19.235.19h.852c.215 0 .323-.054.323-.163a46.62 46.62 0 0 1-.455-2.72c-.118-.847-.201-1.794-.25-2.842-.038-.238-.245-.252-.44-.26a7.208 7.208 0 0 0-.41-.013Zm-.53 1.558c.062.732.16 1.374.22 2.09-.291.464-.535.878-.94 1.244-.913.76-.937-.338-.557-.998.385-.82.865-1.608 1.277-2.336z"/></svg>