<svg xmlns="http://www.w3.org/2000/svg" viewBox="0 0 576 512"><path style="fill:#587297" d="M287.999 0c-11.323 0-22.646 3.645-31.285 10.935l-223.617 188.7c-53.533 45.175-40.775 81.796 28.494 81.796v186.15A43.226 44.42 0 0 0 104.817 512h72.537a43.226 44.42 0 0 0 43.226-44.419v-82.715a43.226 44.42 0 0 1 43.225-44.418h43.227a43.226 44.42 0 0 1 43.225 44.418v82.715A43.226 44.42 0 0 0 393.482 512h72.538a43.226 44.42 0 0 0 43.225-44.419v-186.15h5.164c69.269 0 82.027-36.621 28.494-81.795l-223.617-188.7C310.646 3.644 299.322 0 288 0Z"/></svg>