<svg xmlns="http://www.w3.org/2000/svg" viewBox="0 0 588 512"><path style="fill:#800080" d="M36.642 0A36.734 36.736 0 0 0 0 36.827V438.53A73.467 73.47 0 0 0 73.467 512h477.708A36.826 36.828 0 0 0 588 475.173a36.734 36.736 0 0 0-36.825-36.644H93.66a20.195 20.196 0 0 1-20.194-20.195V36.827A36.826 36.828 0 0 0 36.642 0ZM513.95 42.475a36.64 36.643 0 0 0-36.64 36.642v256.186a36.64 36.643 0 0 0 36.64 36.643h.186a36.64 36.643 0 0 0 36.642-36.643V79.117a36.64 36.643 0 0 0-36.642-36.642ZM291.906 107.91a36.64 36.643 0 0 0-36.642 36.642v190.75a36.64 36.643 0 0 0 36.642 36.644h.186a36.64 36.643 0 0 0 36.64-36.643V144.552a36.64 36.643 0 0 0-36.64-36.642zm111.023 81.507a36.64 36.643 0 0 0-36.641 36.641v109.245a36.64 36.643 0 0 0 36.641 36.643h.184a36.64 36.643 0 0 0 36.642-36.643V226.058a36.64 36.643 0 0 0-36.642-36.641zm-222.046 36.735a36.64 36.643 0 0 0-36.64 36.642v72.509a36.64 36.643 0 0 0 36.64 36.643h.186a36.64 36.643 0 0 0 36.641-36.643v-72.51a36.64 36.643 0 0 0-36.641-36.64z"/></svg>