<svg xmlns="http://www.w3.org/2000/svg" viewBox="0 0 569 512"><path style="fill:#800080" d="M72.16 0A72.158 72.2 0 0 0 0 72.198v367.604A72.158 72.2 0 0 0 72.16 512h239.46a72.158 72.2 0 0 0 12.07-1.589 174.564 174.667 0 0 1-71.843-141.078 174.564 174.667 0 0 1 131.928-169.27V72.197A72.158 72.2 0 0 0 311.62 0Zm13.342 132.604h223.333a15.859 15.868 0 0 1 15.86 15.87v.26a15.859 15.868 0 0 1-15.86 15.87H85.502a15.859 15.868 0 0 1-15.855-15.87v-.26a15.859 15.868 0 0 1 15.855-15.87zm340.915 94.063a142.583 142.667 0 0 0-142.583 142.666A142.583 142.667 0 0 0 426.417 512 142.583 142.667 0 0 0 569 369.333a142.583 142.667 0 0 0-142.583-142.666Zm-340.915 1.198h160.172a15.859 15.868 0 0 1 15.86 15.87v.27a15.859 15.868 0 0 1-15.86 15.865H85.502a15.859 15.868 0 0 1-15.855-15.865v-.27a15.859 15.868 0 0 1 15.855-15.87zm335.616 47.911a25.167 25.182 0 0 1 25.162 25.182 25.167 25.182 0 0 1-25.162 25.183 25.167 25.182 0 0 1-25.168-25.183 25.167 25.182 0 0 1 25.168-25.182zM86.194 323.125h97.495a16.548 16.558 0 0 1 16.548 16.552 16 16.01 0 0 1-16.548 15.448H86.194a16.548 16.558 0 0 1-16.547-16.563 16 16.01 0 0 1 16.547-15.437zm324.237 25.094h15.434a16.548 16.558 0 0 1 16.548 16.557v66.115a15.714 15.724 0 0 1 15.99 15.437 16.548 16.558 0 0 1-16.547 16.563h-30.868a16 16.01 0 0 1-16.547-15.448 16.272 16.281 0 0 1 15.99-16.552v-50.672a15.714 15.724 0 0 1-15.99-15.443 16.272 16.281 0 0 1 15.99-16.557z"/></svg>