<svg xmlns="http://www.w3.org/2000/svg" height="100" width="94"><g fill="#800080"><path d="M47 68.469c10.26 0 18.575-8.316 18.575-18.576V18.575C65.575 8.315 57.26 0 47 0 36.742 0 28.425 8.316 28.425 18.575v31.318c0 10.26 8.317 18.576 18.575 18.576z"/><path d="M21.998 49.893c0 .033 0-.03 0 0zM47 74.897c-13.809 0-25.002-11.195-25.002-25.004v-6.158a2.983 2.983 0 0 0-2.979-2.979h-.235a2.984 2.984 0 0 0-2.978 2.979v6.16c0 16.17 12.305 29.468 28.064 31.037v13.13H24.662a2.67 2.67 0 0 0-2.664 2.665v.608A2.67 2.67 0 0 0 24.662 100h44.676a2.67 2.67 0 0 0 2.664-2.665v-.608a2.67 2.67 0 0 0-2.664-2.665H50.14v-13.13c15.754-1.573 28.054-14.87 28.054-31.037v-6.16a2.983 2.983 0 0 0-2.978-2.979h-.235a2.984 2.984 0 0 0-2.979 2.979v6.158c0 13.809-11.193 25.004-25.002 25.004z"/></g></svg>