<svg xmlns="http://www.w3.org/2000/svg" viewBox="0 0 510 512"><path style="fill:#587297" d="M149.37 0a19.315 19.336 0 0 0-19.316 19.336v58.68a19.315 19.336 0 0 0 19.315 19.337h.268a19.315 19.336 0 0 0 19.315-19.337v-58.68A19.315 19.336 0 0 0 149.637 0Zm210.994 3.666a19.315 19.336 0 0 0-19.315 19.336v58.68a19.315 19.336 0 0 0 19.315 19.335h.268a19.315 19.336 0 0 0 19.315-19.335v-58.68a19.315 19.336 0 0 0-19.315-19.336ZM75.044 40.385A75.045 75.127 0 0 0 0 115.512v321.361A75.045 75.127 0 0 0 75.045 512h359.91A75.045 75.127 0 0 0 510 436.873V115.512a75.045 75.127 0 0 0-75.045-75.127h-35.559v41.431a38.63 38.672 0 0 1-38.63 38.673h-.537a38.63 38.672 0 0 1-38.63-38.673V40.385H188.402v37.766a38.63 38.672 0 0 1-38.63 38.672h-.536a38.63 38.672 0 0 1-38.63-38.672V40.385Zm-35.35 138.527h430.613v266.52a26.802 26.83 0 0 1-26.802 26.831H66.495a26.802 26.83 0 0 1-26.802-26.83z"/></svg>